<svg width="29" height="29" viewBox="0 0 29 29" fill="none" xmlns="http://www.w3.org/2000/svg">
<path d="M14.5 0C22.5081 0 29 6.49187 29 14.5C29 22.5081 22.5081 29 14.5 29C6.49187 29 0 22.5081 0 14.5C0 6.49187 6.49187 0 14.5 0ZM23.0234 12.3799C22.3675 13.0127 21.6345 13.6662 20.5986 14.4111C18.3301 16.0423 16.2923 17.1277 15.0234 17.1279C13.7547 17.1279 11.7169 16.0424 9.44824 14.4111C8.41157 13.6662 7.67937 13.0127 7.02344 12.3799L7.04785 18.8779C7.04785 20.6725 8.4556 20.378 10.2227 20.3779H19.8232C21.5903 20.378 23.0234 20.6725 23.0234 18.8779V12.3799ZM23.0234 9.37793C22.9515 8.86935 23.0228 9.02146 21.0234 9.02148H9.02344C7.02404 9.02146 7.11765 8.89039 7.04785 9.38379C6.97794 9.87767 6.99767 10.5215 7.02246 11.0215C7.0477 11.5212 7.77072 11.8054 8.02344 12.0215C8.60751 12.5208 8.02399 12.0219 10.0234 13.5215C12.0233 15.0211 14.0499 16.0215 15.0234 16.0215C15.9972 16.0212 17.9414 15.0243 20.0234 13.5215C20.781 12.9748 21.3899 12.5642 22.0234 12.0215C22.5234 11.5215 22.8426 11.2018 23.0234 11.0215C23.0234 10.5215 23.0954 9.88652 23.0234 9.37793Z" fill="#272727"/>
</svg>
