<svg width="63" height="63" viewBox="0 0 63 63" fill="none" xmlns="http://www.w3.org/2000/svg">
<path d="M31.5 0C48.897 0 63 14.103 63 31.5C63 48.897 48.897 63 31.5 63C14.103 63 0 48.897 0 31.5C0 14.103 14.103 0 31.5 0ZM50.0156 26.8945C48.5906 28.2693 46.9985 29.6883 44.748 31.3066C39.8193 34.8507 35.3921 37.209 32.6357 37.209C29.8794 37.2088 25.453 34.8505 20.5244 31.3066C18.2722 29.6883 16.6819 28.2693 15.2568 26.8945L15.3105 41.0107C15.3105 44.9095 18.3699 44.2695 22.209 44.2695H43.0635C46.9026 44.2695 50.0156 44.9095 50.0156 41.0107V26.8945ZM50.0156 20.373C49.8592 19.2679 50.0153 19.5976 45.6709 19.5977H19.6016C15.2569 19.5976 15.4624 19.3138 15.3105 20.3867C15.1587 21.4596 15.203 22.8563 15.2568 23.9424C15.311 25.0285 16.8805 25.6448 17.4297 26.1143C18.7002 27.2004 17.4297 26.1145 21.7744 29.373C26.119 32.631 30.5206 34.8045 32.6357 34.8047C34.7508 34.8047 38.9743 32.6391 43.498 29.374C45.1438 28.1863 46.4664 27.2941 47.8428 26.1152C48.929 25.029 49.6229 24.3342 50.0156 23.9424C50.0156 22.8562 50.172 21.4779 50.0156 20.373Z" fill="#4466B2"/>
</svg>
