<svg width="63" height="63" viewBox="0 0 63 63" fill="none" xmlns="http://www.w3.org/2000/svg">
<path d="M31.5 63C48.9011 63 63 48.9011 63 31.5C63 14.0989 48.9011 0 31.5 0C14.0989 0 0 14.0989 0 31.5C0 48.9011 14.0989 63 31.5 63ZM14.4139 30.8175L44.7851 19.1074C46.1948 18.5981 47.4259 19.4513 46.9691 21.5828L46.9717 21.5801L41.8005 45.9428C41.4173 47.67 40.3909 48.09 38.955 47.2763L31.08 41.4724L27.2816 45.1316C26.8616 45.5516 26.5072 45.906 25.6935 45.906L26.2526 37.8919L40.8476 24.7065C41.4829 24.1474 40.7059 23.8324 39.8685 24.3889L21.8321 35.7446L14.0569 33.3191C12.369 32.7836 12.3322 31.6312 14.4139 30.8175Z" fill="#4466B2"/>
</svg>
