<svg width="20" height="16" viewBox="0 0 20 16" fill="none" xmlns="http://www.w3.org/2000/svg">
<path d="M13.335 8.38457L19.9034 14.1108C19.9659 13.9057 20 13.6882 20 13.463V2.57371L13.335 8.38457Z" fill="#272727"/>
<path d="M10 9.05867C10.2816 9.05808 10.559 8.96133 10.7856 8.76422L19.5153 1.15386C19.1081 0.643083 18.4818 0.31488 17.7778 0.31488H2.22228C1.51826 0.31488 0.891929 0.643044 0.484741 1.15386L9.21447 8.76422C9.44072 8.96133 9.71845 9.05808 10 9.05867Z" fill="#272727"/>
<path d="M0 2.57371V13.463C0 13.6882 0.0341797 13.9057 0.0966016 14.1108L6.66504 8.38425L0 2.57371Z" fill="#272727"/>
<path d="M11.6982 9.81121C11.2125 10.2347 10.6044 10.448 9.99996 10.4475C9.39551 10.448 8.78707 10.2344 8.30176 9.81121L7.72188 9.30578L0.904297 15.2492C1.27332 15.5218 1.7282 15.6851 2.22223 15.6851H17.7777C18.2717 15.6851 18.7266 15.5218 19.0956 15.2492L12.278 9.30578L11.6982 9.81121Z" fill="#272727"/>
</svg>
