<svg width="20" height="16" viewBox="0 0 20 16" fill="none" xmlns="http://www.w3.org/2000/svg">
<path d="M13.335 8.06969L19.9034 13.7959C19.9659 13.5908 20 13.3733 20 13.1481V2.25883L13.335 8.06969Z" fill="#F8F8F8"/>
<path d="M10 8.74379C10.2816 8.7432 10.559 8.64645 10.7856 8.44934L19.5153 0.838984C19.1081 0.328203 18.4818 0 17.7778 0H2.22228C1.51826 0 0.891929 0.328164 0.484741 0.838984L9.21447 8.44934C9.44072 8.64645 9.71845 8.7432 10 8.74379Z" fill="#F8F8F8"/>
<path d="M0 2.25883V13.1481C0 13.3733 0.0341797 13.5908 0.0966016 13.7959L6.66504 8.06937L0 2.25883Z" fill="#F8F8F8"/>
<path d="M11.6982 9.49633C11.2125 9.9198 10.6044 10.1332 9.99996 10.1326C9.39551 10.1332 8.78707 9.91953 8.30176 9.49633L7.72188 8.9909L0.904297 14.9343C1.27332 15.2069 1.7282 15.3702 2.22223 15.3702H17.7777C18.2717 15.3702 18.7266 15.2069 19.0956 14.9343L12.278 8.9909L11.6982 9.49633Z" fill="#F8F8F8"/>
</svg>
