<svg width="115" height="24" viewBox="0 0 115 24" fill="none" xmlns="http://www.w3.org/2000/svg">
<path d="M33.576 14.064H36.952C37.0053 14.3947 37.16 14.6827 37.416 14.928C37.672 15.1733 38.0133 15.3653 38.44 15.504C38.8773 15.632 39.3893 15.696 39.976 15.696C40.7867 15.696 41.4267 15.5947 41.896 15.392C42.3653 15.1787 42.6 14.8693 42.6 14.464C42.6 14.1547 42.4667 13.9147 42.2 13.744C41.9333 13.5733 41.4213 13.4507 40.664 13.376L38.424 13.168C36.7707 13.0187 35.5707 12.6453 34.824 12.048C34.0773 11.44 33.704 10.624 33.704 9.6C33.704 8.768 33.944 8.064 34.424 7.488C34.9147 6.912 35.5973 6.48 36.472 6.192C37.3573 5.89333 38.3867 5.744 39.56 5.744C40.712 5.744 41.736 5.90933 42.632 6.24C43.528 6.56 44.2373 7.01867 44.76 7.616C45.2933 8.21333 45.5813 8.90667 45.624 9.696H42.264C42.2213 9.408 42.0827 9.16267 41.848 8.96C41.624 8.74667 41.3147 8.58667 40.92 8.48C40.5253 8.36267 40.0507 8.304 39.496 8.304C38.7493 8.304 38.1573 8.40533 37.72 8.608C37.2827 8.8 37.064 9.088 37.064 9.472C37.064 9.74933 37.192 9.97333 37.448 10.144C37.7147 10.3147 38.1893 10.432 38.872 10.496L41.256 10.736C42.3973 10.8427 43.3093 11.0293 43.992 11.296C44.6747 11.552 45.1707 11.9093 45.48 12.368C45.7893 12.8267 45.944 13.3973 45.944 14.08C45.944 14.9227 45.6933 15.6587 45.192 16.288C44.6907 16.9067 43.9867 17.392 43.08 17.744C42.1733 18.0853 41.1173 18.256 39.912 18.256C38.6747 18.256 37.5813 18.0853 36.632 17.744C35.6933 17.392 34.9573 16.9013 34.424 16.272C33.8907 15.632 33.608 14.896 33.576 14.064ZM50.6576 18V12.16H53.9856V18H50.6576ZM45.0256 6H48.7056L53.0576 11.536H51.5696L55.9056 6H59.5856L53.3776 13.888L51.2496 13.92L45.0256 6ZM61.2022 11.6H69.7302V12.4H61.2022V11.6ZM69.9702 6V6.8H60.9622L61.6822 6.08V18H60.7862V6H69.9702ZM72.5494 6V17.6L72.1494 17.2H81.2534V18H71.6534V6H72.5494ZM87.3616 18.192C86.0603 18.192 84.9083 17.9307 83.9056 17.408C82.9136 16.8853 82.1403 16.16 81.5856 15.232C81.031 14.2933 80.7536 13.2107 80.7536 11.984C80.7536 10.768 81.031 9.696 81.5856 8.768C82.1403 7.84 82.9136 7.11467 83.9056 6.592C84.9083 6.06933 86.0656 5.808 87.3776 5.808C88.679 5.808 89.8256 6.06933 90.8176 6.592C91.8096 7.11467 92.583 7.84 93.1376 8.768C93.6923 9.696 93.9696 10.768 93.9696 11.984C93.9696 13.2107 93.6923 14.2933 93.1376 15.232C92.583 16.16 91.8096 16.8853 90.8176 17.408C89.8256 17.9307 88.6736 18.192 87.3616 18.192ZM87.3616 17.36C88.5136 17.36 89.5163 17.1413 90.3696 16.704C91.223 16.256 91.879 15.632 92.3376 14.832C92.807 14.0213 93.0416 13.0773 93.0416 12C93.0416 10.912 92.807 9.968 92.3376 9.168C91.879 8.368 91.223 7.74933 90.3696 7.312C89.5163 6.864 88.5136 6.64 87.3616 6.64C86.2096 6.64 85.207 6.864 84.3536 7.312C83.511 7.74933 82.855 8.368 82.3856 9.168C81.9163 9.968 81.6816 10.912 81.6816 12C81.6816 13.0773 81.9163 14.0213 82.3856 14.832C82.855 15.632 83.511 16.256 84.3536 16.704C85.207 17.1413 86.2096 17.36 87.3616 17.36ZM109.354 17.824H108.794L113.162 6H114.09L109.594 18H108.522L103.898 6.256H104.506L99.8818 18H98.8098L94.3137 6H95.2417L99.6097 17.824H99.0658L103.674 6H104.73L109.354 17.824Z" fill="white"/>
<g clip-path="url(#clip0_325_13)">
<mask id="mask0_325_13" style="mask-type:luminance" maskUnits="userSpaceOnUse" x="0" y="0" width="21" height="24">
<path d="M21 0H0V24H21V0Z" fill="white"/>
</mask>
<g mask="url(#mask0_325_13)">
<path fill-rule="evenodd" clip-rule="evenodd" d="M12.1532 0L18.1496 3.11698L5.91665 14.586L0 11.5489L12.1532 0Z" fill="white"/>
<path fill-rule="evenodd" clip-rule="evenodd" d="M15.0036 9.41405L21 12.531L8.76705 24L2.8504 20.9629L15.0036 9.41405Z" fill="white"/>
</g>
</g>
<defs>
<clipPath id="clip0_325_13">
<rect width="21" height="24" fill="white"/>
</clipPath>
</defs>
</svg>
