<svg width="94" height="30" viewBox="0 0 94 30" fill="none" xmlns="http://www.w3.org/2000/svg">
<g filter="url(#filter0_d_190_8)">
<g filter="url(#filter1_f_190_8)">
<path d="M29.4319 14.048H31.9639C32.0039 14.296 32.1199 14.512 32.3119 14.696C32.5039 14.88 32.7599 15.024 33.0799 15.128C33.4079 15.224 33.7919 15.272 34.2319 15.272C34.8399 15.272 35.3199 15.196 35.6719 15.044C36.0239 14.884 36.1999 14.652 36.1999 14.348C36.1999 14.116 36.0999 13.936 35.8999 13.808C35.6999 13.68 35.3159 13.588 34.7479 13.532L33.0679 13.376C31.8279 13.264 30.9279 12.984 30.3679 12.536C29.8079 12.08 29.5279 11.468 29.5279 10.7C29.5279 10.076 29.7079 9.548 30.0679 9.116C30.4359 8.684 30.9479 8.36 31.6039 8.144C32.2679 7.92 33.0399 7.808 33.9199 7.808C34.7839 7.808 35.5519 7.932 36.2239 8.18C36.8959 8.42 37.4279 8.764 37.8199 9.212C38.2199 9.66 38.4359 10.18 38.4679 10.772H35.9479C35.9159 10.556 35.8119 10.372 35.6359 10.22C35.4679 10.06 35.2359 9.94 34.9399 9.86C34.6439 9.772 34.2879 9.728 33.8719 9.728C33.3119 9.728 32.8679 9.804 32.5399 9.956C32.2119 10.1 32.0479 10.316 32.0479 10.604C32.0479 10.812 32.1439 10.98 32.3359 11.108C32.5359 11.236 32.8919 11.324 33.4039 11.372L35.1919 11.552C36.0479 11.632 36.7319 11.772 37.2439 11.972C37.7559 12.164 38.1279 12.432 38.3599 12.776C38.5919 13.12 38.7079 13.548 38.7079 14.06C38.7079 14.692 38.5199 15.244 38.1439 15.716C37.7679 16.18 37.2399 16.544 36.5599 16.808C35.8799 17.064 35.0879 17.192 34.1839 17.192C33.2559 17.192 32.4359 17.064 31.7239 16.808C31.0199 16.544 30.4679 16.176 30.0679 15.704C29.6679 15.224 29.4559 14.672 29.4319 14.048ZM42.1278 17V12.62H44.6238V17H42.1278ZM37.9038 8H40.6638L43.9278 12.152H42.8118L46.0638 8H48.8238L44.1678 13.916L42.5718 13.94L37.9038 8ZM49.9211 12.2H56.3171V12.8H49.9211V12.2ZM56.4971 8V8.6H49.7411L50.2811 8.06V17H49.6091V8H56.4971ZM58.3162 8V16.7L58.0162 16.4H64.8442V17H57.6442V8H58.3162ZM69.3101 17.144C68.3341 17.144 67.4701 16.948 66.7181 16.556C65.9741 16.164 65.3941 15.62 64.9781 14.924C64.5621 14.22 64.3541 13.408 64.3541 12.488C64.3541 11.576 64.5621 10.772 64.9781 10.076C65.3941 9.38 65.9741 8.836 66.7181 8.444C67.4701 8.052 68.3381 7.856 69.3221 7.856C70.2981 7.856 71.1581 8.052 71.9021 8.444C72.6461 8.836 73.2261 9.38 73.6421 10.076C74.0581 10.772 74.2661 11.576 74.2661 12.488C74.2661 13.408 74.0581 14.22 73.6421 14.924C73.2261 15.62 72.6461 16.164 71.9021 16.556C71.1581 16.948 70.2941 17.144 69.3101 17.144ZM69.3101 16.52C70.1741 16.52 70.9261 16.356 71.5661 16.028C72.2061 15.692 72.6981 15.224 73.0421 14.624C73.3941 14.016 73.5701 13.308 73.5701 12.5C73.5701 11.684 73.3941 10.976 73.0421 10.376C72.6981 9.776 72.2061 9.312 71.5661 8.984C70.9261 8.648 70.1741 8.48 69.3101 8.48C68.4461 8.48 67.6941 8.648 67.0541 8.984C66.4221 9.312 65.9301 9.776 65.5781 10.376C65.2261 10.976 65.0501 11.684 65.0501 12.5C65.0501 13.308 65.2261 14.016 65.5781 14.624C65.9301 15.224 66.4221 15.692 67.0541 16.028C67.6941 16.356 68.4461 16.52 69.3101 16.52ZM85.6889 16.868H85.2689L88.5449 8H89.2409L85.8689 17H85.0649L81.5969 8.192H82.0529L78.5849 17H77.7809L74.4089 8H75.1049L78.3809 16.868H77.9729L81.4289 8H82.2209L85.6889 16.868Z" fill="white"/>
</g>
<g clip-path="url(#clip0_190_8)" filter="url(#filter2_f_190_8)">
<mask id="mask0_190_8" style="mask-type:luminance" maskUnits="userSpaceOnUse" x="3" y="3" width="18" height="19">
<path d="M20.9999 3H3.99988V22H20.9999V3Z" fill="white"/>
</mask>
<g mask="url(#mask0_190_8)">
<path fill-rule="evenodd" clip-rule="evenodd" d="M13.8382 3L18.6924 5.46761L8.78954 14.5472L3.99988 12.1429L13.8382 3Z" fill="white"/>
<path fill-rule="evenodd" clip-rule="evenodd" d="M16.1457 10.4528L20.9999 12.9204L11.097 22L6.30737 19.5956L16.1457 10.4528Z" fill="white"/>
</g>
</g>
</g>
<defs>
<filter id="filter0_d_190_8" x="-0.00012207" y="3" width="96" height="27" filterUnits="userSpaceOnUse" color-interpolation-filters="sRGB">
<feFlood flood-opacity="0" result="BackgroundImageFix"/>
<feColorMatrix in="SourceAlpha" type="matrix" values="0 0 0 0 0 0 0 0 0 0 0 0 0 0 0 0 0 0 127 0" result="hardAlpha"/>
<feOffset dy="4"/>
<feGaussianBlur stdDeviation="2"/>
<feComposite in2="hardAlpha" operator="out"/>
<feColorMatrix type="matrix" values="0 0 0 0 0 0 0 0 0 0 0 0 0 0 0 0 0 0 0.25 0"/>
<feBlend mode="normal" in2="BackgroundImageFix" result="effect1_dropShadow_190_8"/>
<feBlend mode="normal" in="SourceGraphic" in2="effect1_dropShadow_190_8" result="shape"/>
</filter>
<filter id="filter1_f_190_8" x="27.4319" y="5.80798" width="63.8091" height="13.384" filterUnits="userSpaceOnUse" color-interpolation-filters="sRGB">
<feFlood flood-opacity="0" result="BackgroundImageFix"/>
<feBlend mode="normal" in="SourceGraphic" in2="BackgroundImageFix" result="shape"/>
<feGaussianBlur stdDeviation="1" result="effect1_foregroundBlur_190_8"/>
</filter>
<filter id="filter2_f_190_8" x="0.999878" y="0" width="23" height="25" filterUnits="userSpaceOnUse" color-interpolation-filters="sRGB">
<feFlood flood-opacity="0" result="BackgroundImageFix"/>
<feBlend mode="normal" in="SourceGraphic" in2="BackgroundImageFix" result="shape"/>
<feGaussianBlur stdDeviation="1.5" result="effect1_foregroundBlur_190_8"/>
</filter>
<clipPath id="clip0_190_8">
<rect width="17" height="19" fill="white" transform="translate(3.99988 3)"/>
</clipPath>
</defs>
</svg>
